<?xml version="1.0" standalone="no"?>
<!DOCTYPE svg PUBLIC "-//W3C//DTD SVG 20010904//EN"
 "http://www.w3.org/TR/2001/REC-SVG-20010904/DTD/svg10.dtd">
<svg version="1.0" xmlns="http://www.w3.org/2000/svg"
 width="1840.000000pt" height="1840.000000pt" viewBox="0 0 1840.000000 1840.000000"
 preserveAspectRatio="xMidYMid meet">
<g transform="translate(0.000000,1840.000000) scale(0.100000,-0.100000)"
fill="#000000" stroke="none">
<path d="M3318 13515 c-2 -2 -68 -6 -148 -9 -271 -11 -448 -26 -570 -46 -30
-5 -71 -12 -90 -14 -19 -3 -47 -8 -62 -11 -16 -3 -38 -7 -50 -9 -13 -2 -54
-11 -91 -21 -37 -9 -73 -18 -80 -19 -48 -10 -266 -78 -322 -101 -16 -7 -55
-22 -85 -35 -30 -12 -62 -26 -70 -31 -8 -5 -26 -14 -40 -20 -87 -37 -310 -165
-371 -213 -14 -12 -36 -28 -49 -36 -142 -94 -381 -328 -505 -495 -17 -22 -36
-46 -42 -53 -7 -7 -13 -16 -13 -20 0 -4 -14 -23 -30 -42 -16 -19 -30 -41 -30
-47 0 -7 -5 -13 -11 -13 -5 0 -7 -4 -4 -10 3 -5 2 -10 -3 -10 -5 0 -15 -12
-23 -27 -8 -16 -16 -30 -19 -33 -8 -8 -28 -42 -51 -90 -13 -25 -25 -47 -28
-50 -8 -7 -109 -215 -116 -240 -2 -7 -16 -39 -42 -99 -12 -29 -23 -62 -23 -71
0 -10 -3 -20 -8 -22 -15 -7 -136 -406 -166 -553 -2 -5 -8 -35 -14 -65 -12 -57
-20 -99 -28 -137 -2 -13 -6 -33 -8 -45 -3 -13 -7 -41 -11 -63 -3 -22 -10 -62
-15 -90 -5 -27 -12 -70 -15 -95 -3 -25 -7 -58 -9 -75 -3 -16 -7 -50 -10 -75
-2 -25 -7 -65 -10 -90 -15 -118 -29 -303 -42 -555 -10 -186 -11 -994 -1 -1170
14 -243 17 -294 22 -337 3 -24 7 -79 10 -123 3 -44 8 -87 10 -95 2 -8 7 -43
10 -78 4 -35 8 -73 11 -85 3 -12 7 -42 9 -67 3 -25 7 -56 10 -70 2 -13 7 -42
10 -65 5 -37 8 -51 20 -115 3 -14 7 -38 10 -55 3 -16 8 -41 10 -55 3 -14 7
-34 9 -45 13 -65 42 -184 68 -280 16 -60 31 -118 33 -127 2 -9 9 -27 16 -40 7
-13 12 -24 11 -25 -1 -2 -1 -5 -1 -8 1 -3 2 -8 3 -12 9 -40 51 -155 57 -159 5
-3 9 -14 9 -24 0 -11 11 -44 25 -74 14 -30 25 -57 25 -59 0 -3 8 -22 17 -43 9
-22 16 -42 15 -46 -1 -5 2 -8 8 -8 5 0 10 -5 10 -11 0 -18 94 -200 119 -231 8
-10 11 -18 6 -18 -4 0 4 -15 19 -34 14 -19 26 -38 26 -41 0 -3 11 -21 25 -39
14 -18 25 -36 25 -39 0 -4 21 -35 46 -69 25 -35 53 -74 62 -87 9 -13 29 -37
44 -53 16 -16 28 -31 28 -35 0 -13 220 -236 286 -288 27 -22 56 -47 64 -55 27
-27 169 -130 180 -130 5 0 10 -4 10 -10 0 -5 4 -10 9 -10 5 0 37 -18 70 -40
33 -22 62 -40 64 -40 2 0 35 -17 73 -38 161 -88 416 -186 616 -238 41 -10 64
-15 88 -20 14 -3 33 -7 42 -10 21 -6 54 -13 93 -19 17 -2 41 -7 55 -9 27 -5
151 -23 215 -31 22 -3 76 -8 120 -11 44 -3 100 -7 125 -9 244 -20 1484 -29
1675 -12 177 16 212 20 325 38 36 6 76 12 90 14 14 2 25 4 25 5 0 2 32 9 70
15 37 6 67 12 143 29 339 78 791 252 1057 407 28 16 59 33 71 38 47 21 342
212 399 258 6 5 26 20 45 33 19 13 40 29 46 35 7 5 24 19 40 30 15 11 32 25
38 30 6 6 38 32 71 60 218 182 423 395 663 693 19 22 41 50 50 61 10 11 31 36
47 57 77 96 99 122 131 159 18 22 57 69 85 105 28 36 60 76 73 90 12 14 69 83
126 155 105 129 136 168 155 189 6 6 36 45 69 86 32 41 66 82 75 90 9 8 28 31
41 50 14 19 33 44 43 55 56 63 87 101 87 109 0 7 -94 132 -110 146 -3 3 -19
23 -36 45 -16 22 -35 46 -42 53 -7 8 -25 30 -40 50 -15 21 -29 39 -32 42 -4 4
-27 32 -93 115 -4 6 -40 50 -79 99 -38 50 -75 95 -82 102 -6 7 -21 25 -33 41
-12 15 -34 42 -48 58 -14 17 -42 49 -62 73 l-37 42 -28 -30 c-15 -17 -28 -34
-28 -38 0 -4 -10 -18 -23 -32 -12 -14 -40 -50 -62 -80 -21 -30 -45 -62 -53
-70 -7 -8 -31 -40 -53 -70 -21 -30 -45 -62 -52 -70 -14 -15 -120 -156 -147
-194 -8 -12 -33 -44 -55 -72 -22 -28 -49 -64 -60 -80 -30 -41 -252 -335 -275
-364 -11 -14 -45 -59 -76 -100 -80 -107 -96 -129 -127 -169 -15 -20 -36 -47
-46 -61 -10 -14 -47 -61 -82 -104 -35 -43 -73 -91 -84 -105 -37 -48 -259 -265
-345 -337 -101 -84 -217 -174 -225 -174 -3 0 -15 -8 -26 -18 -10 -11 -32 -25
-47 -32 -15 -8 -36 -22 -47 -31 -80 -65 -542 -293 -637 -314 -9 -2 -26 -9 -37
-15 -12 -6 -21 -8 -21 -4 0 3 -6 2 -12 -3 -12 -10 -104 -41 -138 -47 -8 -1
-40 -10 -70 -19 -30 -9 -68 -19 -85 -22 -48 -9 -77 -15 -125 -26 -65 -15 -79
-18 -125 -24 -22 -4 -53 -8 -70 -11 -16 -3 -48 -7 -70 -9 -22 -2 -62 -7 -90
-10 -92 -11 -276 -14 -805 -15 -545 -1 -728 4 -897 25 -24 3 -60 7 -80 9 -101
11 -136 17 -382 72 -13 3 -32 9 -43 15 -10 5 -23 7 -28 4 -6 -3 -10 -2 -10 3
0 5 -12 12 -27 15 -16 3 -46 14 -68 23 -22 10 -42 18 -45 19 -3 1 -18 7 -35
15 -213 92 -404 237 -561 425 -60 72 -134 179 -134 194 0 6 -3 11 -7 11 -5 0
-13 10 -19 23 -6 12 -34 67 -61 122 -62 122 -84 171 -113 255 -12 36 -25 72
-28 80 -3 8 -6 20 -8 25 -1 6 -9 29 -18 53 -8 23 -15 44 -16 47 0 3 0 6 -1 8
0 1 -2 9 -4 17 -2 8 -15 57 -29 108 -13 50 -22 92 -20 92 3 0 0 8 -5 19 -6 10
-12 33 -15 52 -2 19 -11 70 -20 114 -8 44 -18 95 -21 113 -3 17 -7 46 -10 63
-3 17 -7 52 -10 77 -2 26 -6 59 -9 72 -3 14 -8 52 -12 85 -3 33 -7 74 -9 90
-4 36 -16 173 -21 235 -19 230 -28 1190 -11 1190 5 0 5 6 -2 13 -6 8 -8 16 -6
19 3 3 8 50 10 104 5 122 20 308 31 409 4 28 8 64 9 80 10 97 18 151 36 264
21 127 26 156 29 156 1 0 3 16 5 35 2 19 11 67 20 105 9 39 18 78 21 88 2 10
6 27 9 37 3 10 8 27 10 37 4 21 44 152 52 173 3 8 7 22 9 31 2 9 9 29 15 45 7
16 13 31 14 34 4 19 51 133 72 179 15 31 27 58 27 61 1 3 5 10 9 17 4 6 21 37
37 69 17 31 44 76 60 101 17 24 30 47 30 51 0 4 10 19 23 34 12 14 31 38 41
52 77 106 223 247 326 316 12 8 36 25 53 38 17 12 36 22 43 22 7 0 14 4 16 8
4 10 188 104 188 96 0 -3 12 1 28 9 30 17 95 40 162 58 25 7 50 14 55 15 42
12 118 30 175 40 19 4 44 8 55 11 11 2 40 6 65 9 25 2 56 7 70 9 35 7 176 19
227 19 24 1 43 5 43 9 0 4 8 4 17 -2 9 -5 26 -5 38 -1 16 6 1350 7 1350 1 0
-1 34 -4 75 -6 41 -2 95 -7 120 -10 25 -3 63 -8 85 -10 22 -3 51 -7 65 -10 14
-3 41 -8 60 -10 19 -3 55 -10 80 -16 25 -6 54 -12 65 -14 11 -1 58 -13 105
-25 47 -12 90 -23 95 -24 6 -1 16 -5 23 -9 6 -5 12 -6 12 -2 0 3 13 -1 30 -10
16 -8 31 -15 32 -14 10 6 133 -39 299 -110 306 -130 624 -335 892 -574 144
-128 258 -250 427 -457 74 -91 139 -170 145 -176 5 -6 21 -26 35 -44 14 -19
41 -52 60 -76 19 -23 42 -50 50 -60 8 -11 53 -66 100 -124 82 -102 98 -122
130 -160 8 -10 29 -35 45 -56 17 -21 37 -45 45 -54 8 -9 27 -32 42 -52 15 -20
33 -42 40 -50 7 -7 25 -29 40 -48 15 -19 38 -48 52 -65 14 -16 29 -34 34 -40
98 -123 216 -268 241 -295 17 -19 31 -41 31 -48 0 -7 5 -10 10 -7 6 3 10 2 10
-3 0 -5 25 -40 56 -78 31 -38 71 -86 88 -108 17 -21 36 -43 41 -50 6 -6 24
-29 40 -51 17 -22 33 -42 36 -45 3 -3 37 -43 75 -90 37 -47 72 -86 76 -88 4
-2 8 -10 8 -17 0 -7 4 -15 9 -17 4 -1 37 -39 72 -83 35 -44 69 -87 76 -95 21
-26 224 -283 252 -319 14 -19 31 -39 36 -45 6 -6 32 -40 60 -76 27 -36 52 -67
55 -70 3 -3 19 -23 36 -45 16 -22 34 -45 39 -51 6 -6 24 -29 40 -50 17 -21 42
-53 58 -70 15 -17 27 -34 27 -37 0 -4 12 -20 28 -36 15 -16 32 -36 37 -43 6
-7 57 -71 115 -143 122 -151 110 -136 196 -245 38 -47 70 -87 74 -90 3 -3 52
-63 110 -135 57 -71 108 -131 112 -133 4 -2 8 -8 8 -13 0 -5 8 -17 17 -28 10
-10 25 -28 33 -39 17 -22 74 -92 98 -120 10 -11 28 -34 42 -52 14 -18 30 -38
35 -44 6 -6 26 -31 45 -56 19 -25 37 -47 40 -50 3 -3 70 -86 149 -185 79 -99
151 -186 159 -192 9 -7 12 -13 6 -13 -5 0 -4 -4 2 -8 11 -7 96 -108 144 -172
14 -18 30 -38 35 -44 6 -6 42 -49 80 -96 109 -131 140 -165 290 -315 138 -137
168 -165 255 -235 23 -19 56 -47 72 -62 17 -16 33 -28 37 -28 3 0 20 -13 38
-28 38 -33 65 -54 85 -67 9 -5 45 -30 80 -55 34 -25 106 -72 158 -105 52 -33
97 -62 100 -65 7 -7 93 -54 180 -97 41 -21 77 -40 80 -43 7 -7 64 -32 69 -30
2 1 7 -2 10 -7 10 -15 340 -154 426 -179 28 -8 59 -19 70 -24 23 -10 86 -29
100 -31 6 0 24 -6 40 -13 17 -7 32 -13 35 -13 3 0 30 -7 60 -16 30 -9 66 -18
80 -20 14 -2 32 -7 40 -10 8 -3 40 -11 70 -17 30 -5 66 -13 80 -15 14 -3 37
-7 52 -10 15 -2 35 -6 45 -9 10 -2 38 -7 63 -11 25 -3 54 -7 65 -9 19 -4 93
-14 165 -22 19 -2 78 -7 130 -11 169 -14 1605 -7 1605 7 0 1 29 3 65 5 113 6
312 26 395 40 17 3 44 7 60 9 17 2 41 6 55 10 14 3 36 8 50 10 14 2 43 9 65
14 22 6 54 13 70 16 17 2 68 16 115 31 47 14 92 27 100 30 69 18 370 141 380
155 3 4 16 11 30 15 14 4 42 19 62 31 21 13 40 24 43 24 11 0 210 133 289 193
91 70 139 112 250 222 70 70 99 102 176 195 8 10 23 28 32 39 24 28 168 239
168 246 0 2 16 30 37 62 44 70 183 355 183 377 0 9 5 16 12 16 6 0 8 3 5 6 -3
4 -1 16 5 28 7 11 13 23 14 26 0 3 4 14 8 25 27 69 41 108 62 174 13 40 24 77
24 82 0 4 4 18 9 31 5 13 9 26 10 30 1 4 11 38 22 75 11 38 22 79 25 93 8 38
12 55 14 55 1 0 3 8 5 17 2 9 8 40 15 70 6 29 14 67 17 83 8 44 11 60 13 60 1
0 4 11 5 25 6 37 22 137 31 185 2 10 6 35 9 55 3 20 7 45 9 55 2 11 7 49 11
85 4 36 9 73 10 82 2 9 7 52 10 95 4 43 9 86 11 96 2 11 6 60 9 110 3 51 8
112 10 137 13 142 20 405 20 785 0 393 -4 544 -21 800 -3 50 -7 101 -7 115 -1
14 -6 28 -12 32 -6 5 -5 8 3 8 7 0 11 4 8 9 -3 4 -8 37 -11 72 -3 35 -8 78
-10 94 -3 17 -7 57 -11 89 -3 33 -8 69 -10 80 -2 12 -7 41 -9 66 -3 25 -13 88
-22 140 -9 52 -17 106 -19 120 -2 14 -6 36 -9 50 -10 40 -16 73 -20 100 -2 14
-4 25 -5 25 -1 0 -4 11 -6 24 -2 14 -11 50 -19 80 -8 31 -16 67 -19 81 -8 35
-28 112 -34 130 -10 27 -34 111 -36 125 -1 6 -4 15 -7 20 -4 6 -12 28 -19 50
-21 66 -93 260 -99 265 -3 3 -7 12 -9 20 -5 26 -143 304 -160 324 -10 10 -15
19 -12 21 3 2 -16 35 -42 74 -27 40 -48 74 -48 77 0 3 -15 25 -32 49 -18 23
-42 56 -53 71 -11 15 -32 42 -47 60 -16 17 -28 34 -28 37 0 15 -219 240 -298
307 -30 25 -68 58 -85 73 -18 15 -44 35 -59 44 -16 10 -28 21 -28 25 0 4 -5 8
-11 8 -6 0 -28 12 -48 28 -41 31 -45 34 -161 101 -89 51 -240 131 -251 131 -4
0 -28 10 -55 22 -27 12 -52 21 -56 20 -5 -1 -8 3 -8 10 0 6 -3 9 -6 5 -3 -3
-36 6 -72 20 -37 14 -89 32 -117 40 -57 16 -269 72 -273 72 -1 0 -15 2 -30 5
-47 10 -86 16 -122 21 -19 3 -46 7 -60 10 -61 12 -132 20 -260 30 -149 12
-212 16 -340 22 -187 10 -1325 10 -1435 0 -149 -13 -172 -15 -222 -22 -49 -6
-208 -32 -253 -41 -14 -3 -38 -7 -55 -10 -16 -3 -57 -12 -90 -21 -33 -8 -68
-17 -78 -19 -10 -2 -27 -6 -37 -9 -10 -3 -27 -7 -37 -9 -10 -2 -44 -12 -77
-21 -32 -9 -64 -18 -70 -20 -6 -1 -18 -5 -26 -8 -8 -3 -58 -20 -110 -37 -52
-17 -104 -35 -115 -40 -11 -5 -69 -29 -130 -53 -60 -25 -148 -63 -195 -86 -47
-22 -91 -41 -97 -41 -7 0 -13 -4 -13 -8 0 -4 -29 -21 -65 -37 -36 -17 -65 -33
-65 -37 0 -5 -5 -8 -10 -8 -13 0 -259 -147 -278 -166 -7 -8 -20 -14 -28 -14
-8 0 -14 -4 -14 -9 0 -5 -16 -19 -36 -30 -36 -22 -222 -159 -259 -192 -11 -10
-51 -44 -90 -76 -79 -66 -74 -61 -181 -164 -106 -102 -216 -219 -289 -305
-121 -143 -140 -166 -149 -183 -5 -9 -15 -20 -21 -26 -7 -5 -49 -57 -95 -115
-46 -58 -90 -111 -98 -117 -9 -7 -12 -13 -8 -13 4 0 1 -6 -6 -13 -7 -8 -26
-31 -43 -52 -16 -21 -35 -43 -40 -49 -6 -6 -26 -31 -45 -56 -19 -24 -42 -52
-50 -61 -8 -9 -42 -51 -75 -93 -33 -42 -63 -76 -67 -76 -5 0 -8 -5 -8 -11 0
-6 -12 -26 -27 -43 -16 -18 -42 -50 -60 -71 -17 -22 -75 -94 -127 -159 -53
-66 -96 -123 -96 -128 0 -5 -4 -6 -10 -3 -5 3 -10 2 -10 -3 0 -5 -31 -49 -70
-97 -38 -48 -70 -90 -70 -93 0 -4 58 -78 85 -108 5 -7 24 -29 42 -50 17 -22
39 -49 50 -60 10 -12 29 -36 43 -54 14 -18 30 -38 35 -44 10 -11 144 -171 175
-209 8 -10 23 -28 34 -40 10 -12 54 -66 99 -120 l80 -98 25 26 c14 15 41 48
60 74 19 25 39 48 44 49 4 2 8 8 8 13 0 6 11 22 25 37 14 15 60 72 102 127 43
55 82 105 88 111 5 6 19 23 30 38 11 16 30 40 42 55 12 14 50 62 85 106 34 44
65 82 68 85 3 3 27 34 55 70 27 36 52 67 55 70 3 3 18 23 35 45 16 22 34 45
40 51 5 6 21 26 35 44 20 26 191 243 253 320 7 8 23 29 37 46 14 17 34 44 44
58 11 15 27 35 35 45 9 10 27 33 41 51 92 120 347 385 403 418 15 9 27 22 27
29 0 7 5 13 11 13 6 0 18 8 27 17 9 9 51 41 92 72 41 30 77 57 80 60 16 19
276 181 346 216 21 11 41 22 44 25 5 5 100 50 222 104 66 30 209 86 220 86 4
0 19 5 35 12 30 12 36 14 68 22 11 3 52 14 90 26 39 11 81 22 95 25 14 3 40 9
58 14 17 5 32 7 32 4 0 -3 6 -1 13 5 6 6 15 10 20 10 25 -1 104 15 114 23 7 7
13 6 17 0 4 -6 15 -7 29 -2 12 5 47 11 77 15 117 14 146 18 200 22 82 8 1410
12 1410 5 0 -3 28 -6 63 -7 62 -1 191 -11 237 -19 14 -2 45 -6 70 -9 63 -8
182 -31 220 -41 6 -2 83 -19 90 -20 14 -2 128 -38 145 -46 11 -5 45 -18 75
-29 78 -30 220 -102 220 -112 0 -4 6 -8 14 -8 16 0 153 -99 214 -155 101 -92
215 -223 263 -302 13 -21 26 -40 29 -43 4 -3 21 -30 38 -60 74 -132 146 -297
197 -450 21 -63 42 -124 46 -135 4 -11 11 -33 15 -50 4 -16 8 -32 9 -35 0 -3
5 -23 10 -45 4 -22 9 -44 11 -50 20 -79 31 -135 28 -135 -3 0 0 -8 5 -18 5
-10 12 -36 15 -58 10 -73 16 -109 21 -134 3 -14 8 -43 11 -65 3 -22 7 -56 10
-75 13 -86 15 -107 29 -245 3 -33 8 -80 10 -105 7 -61 16 -206 19 -311 2 -48
5 -90 8 -95 6 -11 2 -914 -5 -1029 -7 -118 -18 -275 -22 -315 -2 -19 -6 -62
-10 -95 -3 -33 -7 -73 -9 -90 -2 -16 -6 -55 -10 -85 -7 -59 -12 -100 -20 -140
-5 -29 -19 -118 -22 -140 -1 -8 -7 -42 -14 -75 -6 -33 -13 -67 -15 -75 -2 -16
-3 -19 -42 -175 -14 -55 -26 -107 -28 -115 -2 -8 -4 -15 -5 -15 -1 0 -3 -7 -5
-15 -3 -8 -6 -22 -8 -30 -2 -8 -6 -22 -9 -30 -3 -8 -20 -55 -38 -105 -17 -49
-38 -104 -46 -122 -8 -17 -14 -34 -14 -37 0 -8 -78 -165 -108 -218 -127 -223
-283 -401 -478 -541 -29 -20 -57 -37 -63 -37 -6 0 -11 -4 -11 -10 0 -5 -6 -10
-14 -10 -7 0 -19 -7 -26 -15 -7 -8 -21 -15 -31 -15 -11 0 -19 -4 -19 -9 0 -5
-10 -13 -22 -17 -13 -4 -50 -19 -83 -34 -33 -16 -82 -35 -110 -44 -27 -9 -57
-19 -65 -23 -8 -3 -19 -7 -25 -9 -120 -31 -217 -54 -245 -59 -57 -11 -57 -11
-200 -30 -178 -24 -309 -28 -960 -28 -597 1 -885 8 -885 22 0 1 -25 4 -55 6
-30 3 -66 7 -80 10 -14 4 -38 8 -55 11 -16 3 -54 9 -82 15 -29 6 -54 10 -55
10 -2 0 -46 11 -98 25 -106 28 -98 26 -160 44 -25 7 -48 13 -52 12 -5 -1 -8 3
-8 10 0 6 -3 9 -6 6 -3 -4 -40 6 -82 22 -72 26 -96 35 -197 78 -83 35 -273
132 -354 181 -46 28 -88 51 -92 51 -4 0 -9 3 -11 8 -2 4 -43 34 -93 67 -49 33
-95 64 -101 70 -6 5 -26 21 -44 35 -114 86 -202 163 -335 295 -120 121 -185
195 -361 415 -81 102 -151 187 -156 188 -4 2 -8 10 -8 17 0 7 -4 15 -9 17 -5
2 -32 32 -60 68 -28 36 -62 79 -75 95 -14 17 -76 95 -140 175 -64 80 -125 155
-136 167 -11 12 -20 25 -20 27 0 3 -11 18 -25 33 -57 63 -175 213 -175 223 0
5 -4 10 -8 10 -4 0 -24 21 -44 48 -20 26 -45 57 -55 68 -10 12 -29 36 -43 54
-14 18 -33 42 -44 54 -10 11 -37 46 -60 76 -22 30 -43 57 -47 60 -13 12 -139
170 -139 175 0 3 -12 18 -27 34 -16 15 -32 35 -38 43 -11 18 -203 255 -241
297 -12 14 -32 37 -43 51 -11 14 -26 31 -32 39 -64 75 -196 236 -296 361 -37
47 -74 92 -81 100 -6 8 -53 67 -102 130 -50 63 -99 126 -110 139 -12 13 -37
44 -58 70 -20 25 -41 51 -47 58 -5 7 -19 24 -30 39 -11 14 -24 31 -30 37 -5 7
-26 32 -46 57 -20 25 -46 56 -58 70 -11 14 -24 30 -28 35 -5 6 -24 30 -43 55
-19 25 -43 54 -53 65 -10 11 -33 39 -50 63 -17 23 -34 42 -39 42 -4 0 -8 4 -8
10 0 9 -19 35 -50 69 -9 9 -33 39 -55 66 -38 49 -44 56 -74 91 -8 9 -30 37
-49 63 -19 25 -38 48 -42 51 -3 3 -37 43 -74 90 -37 47 -84 105 -104 129 -20
23 -39 48 -41 53 -2 6 -11 18 -20 27 -9 9 -61 72 -116 141 -55 69 -102 127
-106 130 -3 3 -43 52 -89 110 -45 58 -86 107 -90 110 -4 3 -11 12 -16 21 -5 9
-27 37 -49 64 -22 26 -57 68 -78 94 -122 146 -332 362 -467 481 -34 30 -68 60
-74 65 -28 26 -254 204 -278 220 -9 6 -64 43 -122 83 -58 39 -110 72 -116 72
-5 0 -10 4 -10 9 0 5 -9 12 -19 16 -11 3 -35 16 -53 29 -18 12 -58 35 -88 52
-30 16 -57 31 -60 34 -5 6 -283 143 -335 165 -16 7 -46 20 -65 28 -101 44
-367 141 -422 153 -10 2 -27 6 -37 8 -11 3 -30 10 -43 17 -13 7 -25 11 -28 10
-5 -2 -72 13 -125 29 -27 8 -134 31 -210 44 -16 3 -55 10 -86 16 -31 6 -76 13
-100 16 -24 2 -57 7 -74 9 -16 2 -57 7 -90 10 -33 4 -80 9 -105 12 -45 6
-1326 13 -1332 8z"/>
</g>
</svg>
