<svg width="115" height="54" viewBox="0 0 115 54" fill="none" xmlns="http://www.w3.org/2000/svg">
<path d="M106.041 2.94545C102.946 0.981818 99.5255 0.327273 96.5935 0.163636C94.6388 -1.63913e-07 92.1955 0 90.2408 0C89.5892 0 88.7748 0 88.2861 0C79.8159 0 72.3229 3.92727 67.4363 9.98182L60.5949 18.4909L64.6671 23.4L72.1601 13.9091C75.9065 9.16364 81.7705 6.21818 88.2861 6.21818C89.1006 6.21818 89.915 6.21818 90.5666 6.21818C100.829 6.05455 108.81 6.05454 108.81 27C108.81 47.9455 100.829 47.9455 90.5666 47.7818C89.7521 47.7818 88.9377 47.7818 88.2861 47.7818C81.7705 47.7818 76.0694 44.8364 72.1601 40.0909L62.0609 27.4909L60.2691 25.3636L57.6629 22.0909L47.8895 9.98182C42.8399 3.92727 35.347 0 26.8768 0C26.2252 0 25.5737 0 24.9221 0C22.8045 0 20.5241 -1.63913e-07 18.4065 0.163636C15.4745 0.327273 12.0538 0.981818 8.95892 2.94545C2.28045 7.2 0 15.3818 0 27C0 38.6182 2.28045 46.8 8.95892 51.0545C12.0538 53.0182 15.4745 53.6727 18.4065 53.8364C20.5241 54 22.8045 54 24.9221 54C25.5737 54 26.3881 54 26.8768 54C35.347 54 42.8399 50.0727 47.7266 44.0182L54.4051 35.8364L51.1473 31.7455L50.3329 30.7636L50.0071 30.4364L42.8399 39.9273C39.0935 44.6727 33.2295 47.6182 26.7139 47.6182C25.8994 47.6182 25.085 47.6182 24.4334 47.6182C14.1714 47.7818 6.1898 47.7818 6.1898 26.8364C6.1898 5.89091 14.1714 6.05455 24.5963 6.21818C25.4108 6.21818 26.2252 6.21818 26.8768 6.21818C33.3924 6.21818 39.0935 9.16364 43.0028 13.9091L51.636 24.5455L53.7535 27.1636L57.5 31.9091L67.2734 44.0182C72.1601 50.0727 79.653 54 88.1232 54C88.7748 54 89.4263 54 90.0779 54C92.1955 54 94.4759 54 96.5935 53.8364C99.5255 53.6727 102.946 53.0182 106.041 51.0545C112.72 46.8 115 38.6182 115 27C115 15.3818 112.72 7.2 106.041 2.94545Z" fill="white"/>
</svg>
